name ./resultDataOpenSim/trcMotMarkerGrf/sub06/grf-01-06.mot
datacolumns 19
datarows 12
range 1.00000000 1.04400000
endheader

                time	     ground_force_vx	     ground_force_vy	     ground_force_vz	     ground_force_px	     ground_force_py	     ground_force_pz	   l_ground_force_vx	   l_ground_force_vy	   l_ground_force_vz	   l_ground_force_px	   l_ground_force_py	   l_ground_force_pz	     ground_torque_x	     ground_torque_y	     ground_torque_z	   l_ground_torque_x	   l_ground_torque_y	   l_ground_torque_z	
          1.00000000	          0.00000000	          0.00000000	          0.00000000	          0.00000000	          0.00000000	          0.00000000	         39.24902345	        504.98701783	         25.34569546	          0.08365832	          0.00000000	         -0.05468834	          0.00000000	          0.00000000	          0.00000000	          0.00000000	         -1.84851749	          0.00000000	
          1.00400000	          0.00000000	          0.00000000	          0.00000000	          0.00000000	          0.00000000	          0.00000000	         42.87494522	        522.33641104	         26.04395707	          0.08413166	          0.00000000	         -0.05453864	          0.00000000	          0.00000000	          0.00000000	          0.00000000	         -1.93683406	          0.00000000	
          1.00800000	          0.00000000	          0.00000000	          0.00000000	          0.00000000	          0.00000000	          0.00000000	         46.52872531	        540.45978545	         26.80984310	          0.08458965	          0.00000000	         -0.05437612	          0.00000000	          0.00000000	          0.00000000	          0.00000000	         -2.03475717	          0.00000000	
          1.01200000	          0.00000000	          0.00000000	          0.00000000	          0.00000000	          0.00000000	          0.00000000	         50.23438016	        559.29568116	         27.62245864	          0.08505060	          0.00000000	         -0.05419795	          0.00000000	          0.00000000	          0.00000000	          0.00000000	         -2.13954233	          0.00000000	
          1.01600000	          0.00000000	          0.00000000	          0.00000000	          0.00000000	          0.00000000	          0.00000000	         54.05767531	        578.77737330	         28.48906743	          0.08553790	          0.00000000	         -0.05400167	          0.00000000	          0.00000000	          0.00000000	          0.00000000	         -2.24720343	          0.00000000	
          1.02000000	          0.00000000	          0.00000000	          0.00000000	          0.00000000	          0.00000000	          0.00000000	         58.08422175	        598.82855407	         29.45059029	          0.08605807	          0.00000000	         -0.05379079	          0.00000000	          0.00000000	          0.00000000	          0.00000000	         -2.35314307	          0.00000000	
          1.02400000	          0.00000000	          0.00000000	          0.00000000	          0.00000000	          0.00000000	          0.00000000	         62.40680475	        619.29560162	         30.53845591	          0.08662189	          0.00000000	         -0.05357247	          0.00000000	          0.00000000	          0.00000000	          0.00000000	         -2.45315743	          0.00000000	
          1.02800000	          0.00000000	          0.00000000	          0.00000000	          0.00000000	          0.00000000	          0.00000000	         67.11852819	        639.90942943	         31.73613621	          0.08724326	          0.00000000	         -0.05335068	          0.00000000	          0.00000000	          0.00000000	          0.00000000	         -2.54433834	          0.00000000	
          1.03200000	          0.00000000	          0.00000000	          0.00000000	          0.00000000	          0.00000000	          0.00000000	         72.29678895	        660.34982196	         32.99127845	          0.08791995	          0.00000000	         -0.05313160	          0.00000000	          0.00000000	          0.00000000	          0.00000000	         -2.62541247	          0.00000000	
          1.03600000	          0.00000000	          0.00000000	          0.00000000	          0.00000000	          0.00000000	          0.00000000	         77.97836953	        680.33983204	         34.24848736	          0.08860627	          0.00000000	         -0.05292312	          0.00000000	          0.00000000	          0.00000000	          0.00000000	         -2.69641332	          0.00000000	
          1.04000000	          0.00000000	          0.00000000	          0.00000000	          0.00000000	          0.00000000	          0.00000000	         84.15191559	        699.66880106	         35.46014115	          0.08923009	          0.00000000	         -0.05273548	          0.00000000	          0.00000000	          0.00000000	          0.00000000	         -2.75795688	          0.00000000	
          1.04400000	          0.00000000	          0.00000000	          0.00000000	          0.00000000	          0.00000000	          0.00000000	         90.76640652	        718.15629846	         36.59028713	          0.08974126	          0.00000000	         -0.05257242	          0.00000000	          0.00000000	          0.00000000	          0.00000000	         -2.81053174	          0.00000000	
